<svg xmlns="http://www.w3.org/2000/svg" xmlns:xlink="http://www.w3.org/1999/xlink" width="1584" zoomAndPan="magnify" viewBox="0 0 1188 296.999993" height="396" preserveAspectRatio="xMidYMid meet" version="1.0"><defs><filter x="0%" y="0%" width="100%" height="100%" id="973eb496cb"><feColorMatrix values="0 0 0 0 1 0 0 0 0 1 0 0 0 0 1 0 0 0 1 0" color-interpolation-filters="sRGB"/></filter><mask id="30a09c3357"><g filter="url(#973eb496cb)"><rect x="-118.8" width="1425.6" fill="#000000" y="-29.699999" height="356.399992" fill-opacity="0.14"/></g></mask><clipPath id="673221752c"><path d="M 0 1 L 14 1 L 14 68 L 0 68 Z M 0 1 " clip-rule="nonzero"/></clipPath><clipPath id="ad77de678c"><rect x="0" width="15" y="0" height="71"/></clipPath><mask id="b241cb3b83"><g filter="url(#973eb496cb)"><rect x="-118.8" width="1425.6" fill="#000000" y="-29.699999" height="356.399992" fill-opacity="0.51"/></g></mask><clipPath id="3c416bbd82"><path d="M 0 1 L 21 1 L 21 61 L 0 61 Z M 0 1 " clip-rule="nonzero"/></clipPath><clipPath id="4a1dd6a0f2"><rect x="0" width="23" y="0" height="63"/></clipPath><mask id="a5ae02393a"><g filter="url(#973eb496cb)"><rect x="-118.8" width="1425.6" fill="#000000" y="-29.699999" height="356.399992" fill-opacity="0.14"/></g></mask><clipPath id="ab343f0269"><path d="M 0 0.679688 L 21 0.679688 L 21 96 L 0 96 Z M 0 0.679688 " clip-rule="nonzero"/></clipPath><clipPath id="8e9a5f63d3"><rect x="0" width="23" y="0" height="97"/></clipPath><mask id="bda179b8e1"><g filter="url(#973eb496cb)"><rect x="-118.8" width="1425.6" fill="#000000" y="-29.699999" height="356.399992" fill-opacity="0.18"/></g></mask><clipPath id="78993e3cd9"><path d="M 0 1 L 49 1 L 49 108 L 0 108 Z M 0 1 " clip-rule="nonzero"/></clipPath><clipPath id="b80a194cdb"><rect x="0" width="52" y="0" height="108"/></clipPath><mask id="035fe83013"><g filter="url(#973eb496cb)"><rect x="-118.8" width="1425.6" fill="#000000" y="-29.699999" height="356.399992" fill-opacity="0.37"/></g></mask><clipPath id="7642ee4e18"><path d="M 0 1 L 84.71875 1 L 84.71875 7 L 0 7 Z M 0 1 " clip-rule="nonzero"/></clipPath><clipPath id="34605b75f2"><rect x="0" width="85" y="0" height="7"/></clipPath><mask id="826ad0137d"><g filter="url(#973eb496cb)"><rect x="-118.8" width="1425.6" fill="#000000" y="-29.699999" height="356.399992" fill-opacity="0.56"/></g></mask><clipPath id="79efce274b"><path d="M 0.238281 0.480469 L 80 0.480469 L 80 33 L 0.238281 33 Z M 0.238281 0.480469 " clip-rule="nonzero"/></clipPath><clipPath id="212b03390f"><rect x="0" width="81" y="0" height="33"/></clipPath><mask id="da9af6dec9"><g filter="url(#973eb496cb)"><rect x="-118.8" width="1425.6" fill="#000000" y="-29.699999" height="356.399992" fill-opacity="0.44"/></g></mask><clipPath id="f5754b5342"><rect x="0" width="110" y="0" height="105"/></clipPath><mask id="16c3c8a78d"><g filter="url(#973eb496cb)"><rect x="-118.8" width="1425.6" fill="#000000" y="-29.699999" height="356.399992" fill-opacity="0.33"/></g></mask><clipPath id="66c8c7c71b"><path d="M 0 0 L 35.761719 0 L 35.761719 64 L 0 64 Z M 0 0 " clip-rule="nonzero"/></clipPath><clipPath id="d775b0e299"><rect x="0" width="36" y="0" height="66"/></clipPath><mask id="89947b2aa3"><g filter="url(#973eb496cb)"><rect x="-118.8" width="1425.6" fill="#000000" y="-29.699999" height="356.399992" fill-opacity="0.14"/></g></mask><clipPath id="c6ab1b710e"><rect x="0" width="109" y="0" height="84"/></clipPath><mask id="8b99e98364"><g filter="url(#973eb496cb)"><rect x="-118.8" width="1425.6" fill="#000000" y="-29.699999" height="356.399992" fill-opacity="0.18"/></g></mask><clipPath id="6792bbea9b"><path d="M 1 0.679688 L 109 0.679688 L 109 84 L 1 84 Z M 1 0.679688 " clip-rule="nonzero"/></clipPath><clipPath id="d29a8817b5"><rect x="0" width="110" y="0" height="87"/></clipPath><mask id="35ff2aff46"><g filter="url(#973eb496cb)"><rect x="-118.8" width="1425.6" fill="#000000" y="-29.699999" height="356.399992" fill-opacity="0.72"/></g></mask><clipPath id="3188934a13"><path d="M 3 0.480469 L 99 0.480469 L 99 33 L 3 33 Z M 3 0.480469 " clip-rule="nonzero"/></clipPath><clipPath id="62c87d7c06"><rect x="0" width="100" y="0" height="33"/></clipPath><mask id="f490a8832b"><g filter="url(#973eb496cb)"><rect x="-118.8" width="1425.6" fill="#000000" y="-29.699999" height="356.399992" fill-opacity="0.37"/></g></mask><clipPath id="83853705a4"><path d="M 2 2 L 55 2 L 55 98 L 2 98 Z M 2 2 " clip-rule="nonzero"/></clipPath><clipPath id="efd137a550"><rect x="0" width="56" y="0" height="98"/></clipPath><mask id="2a2acf4cc8"><g filter="url(#973eb496cb)"><rect x="-118.8" width="1425.6" fill="#000000" y="-29.699999" height="356.399992" fill-opacity="0.34"/></g></mask><clipPath id="cecac57487"><rect x="0" width="58" y="0" height="102"/></clipPath><mask id="69f6c92533"><g filter="url(#973eb496cb)"><rect x="-118.8" width="1425.6" fill="#000000" y="-29.699999" height="356.399992" fill-opacity="0.56"/></g></mask><clipPath id="4536df98e4"><path d="M 0.28125 2 L 67 2 L 67 98 L 0.28125 98 Z M 0.28125 2 " clip-rule="nonzero"/></clipPath><clipPath id="ba547fc296"><rect x="0" width="68" y="0" height="98"/></clipPath><mask id="842ce9d6c4"><g filter="url(#973eb496cb)"><rect x="-118.8" width="1425.6" fill="#000000" y="-29.699999" height="356.399992" fill-opacity="0.42"/></g></mask><clipPath id="2cb6da1364"><path d="M 0.078125 1 L 129.679688 1 L 129.679688 101 L 0.078125 101 Z M 0.078125 1 " clip-rule="nonzero"/></clipPath><clipPath id="234bab40f8"><rect x="0" width="130" y="0" height="102"/></clipPath><mask id="3f47bc6fe7"><g filter="url(#973eb496cb)"><rect x="-118.8" width="1425.6" fill="#000000" y="-29.699999" height="356.399992" fill-opacity="0.14"/></g></mask><clipPath id="d71d9435ec"><path d="M 0 0 L 66 0 L 66 64 L 0 64 Z M 0 0 " clip-rule="nonzero"/></clipPath><clipPath id="dd48fc0674"><rect x="0" width="67" y="0" height="66"/></clipPath><mask id="2ad1578219"><g filter="url(#973eb496cb)"><rect x="-118.8" width="1425.6" fill="#000000" y="-29.699999" height="356.399992" fill-opacity="0.22"/></g></mask><clipPath id="49a21533e2"><path d="M 2 0 L 101.878906 0 L 101.878906 103 L 2 103 Z M 2 0 " clip-rule="nonzero"/></clipPath><clipPath id="4a6008a0be"><rect x="0" width="102" y="0" height="105"/></clipPath><mask id="706781bc05"><g filter="url(#973eb496cb)"><rect x="-118.8" width="1425.6" fill="#000000" y="-29.699999" height="356.399992" fill-opacity="0.44"/></g></mask><clipPath id="1af349dbce"><path d="M 0.28125 1 L 80.679688 1 L 80.679688 67 L 0.28125 67 Z M 0.28125 1 " clip-rule="nonzero"/></clipPath><clipPath id="20db05e1ef"><rect x="0" width="81" y="0" height="69"/></clipPath><mask id="dd97b03316"><g filter="url(#973eb496cb)"><rect x="-118.8" width="1425.6" fill="#000000" y="-29.699999" height="356.399992" fill-opacity="0.38"/></g></mask><clipPath id="0590f437ae"><path d="M 2 1 L 83 1 L 83 90 L 2 90 Z M 2 1 " clip-rule="nonzero"/></clipPath><clipPath id="cefd0dde3d"><rect x="0" width="84" y="0" height="90"/></clipPath><mask id="87508c1288"><g filter="url(#973eb496cb)"><rect x="-118.8" width="1425.6" fill="#000000" y="-29.699999" height="356.399992" fill-opacity="0.37"/></g></mask><clipPath id="3a93bf0fae"><path d="M 2 1 L 67 1 L 67 90 L 2 90 Z M 2 1 " clip-rule="nonzero"/></clipPath><clipPath id="7798ea8b25"><rect x="0" width="69" y="0" height="90"/></clipPath></defs><rect x="-118.8" width="1425.6" fill="#ffffff" y="-29.699999" height="356.399992" fill-opacity="1"/><rect x="-118.8" width="1425.6" fill="#efefef" y="-29.699999" height="356.399992" fill-opacity="1"/><path fill="#c1ff72" d="M -136.695312 115.753906 L 13.074219 131.339844 L -109.039062 181.890625 Z M -136.695312 115.753906 " fill-opacity="1" fill-rule="nonzero"/><g mask="url(#30a09c3357)"><g transform="matrix(1, 0, 0, 1, 0, 114)"><g clip-path="url(#ad77de678c)"><g clip-path="url(#673221752c)"><path fill="#040053" d="M -136.695312 1.753906 L 13.074219 17.339844 L -109.039062 67.890625 Z M -136.695312 1.753906 " fill-opacity="1" fill-rule="nonzero"/></g></g></g></g><path fill="#c1ff72" d="M 13.074219 131.339844 L -136.695312 115.753906 L -29.542969 38.199219 Z M 13.074219 131.339844 " fill-opacity="1" fill-rule="nonzero"/><path fill="#c1ff72" d="M 20.050781 190.160156 L -109.039062 181.890625 L 13.074219 131.339844 Z M 20.050781 190.160156 " fill-opacity="1" fill-rule="nonzero"/><g mask="url(#b241cb3b83)"><g transform="matrix(1, 0, 0, 1, 0, 130)"><g clip-path="url(#4a1dd6a0f2)"><g clip-path="url(#3c416bbd82)"><path fill="#100d28" d="M 20.050781 60.160156 L -109.039062 51.890625 L 13.074219 1.339844 Z M 20.050781 60.160156 " fill-opacity="1" fill-rule="nonzero"/></g></g></g></g><path fill="#c1ff72" d="M -57.53125 276.972656 L 20.050781 190.160156 L -109.039062 181.890625 Z M -57.53125 276.972656 " fill-opacity="1" fill-rule="nonzero"/><g mask="url(#a5ae02393a)"><g transform="matrix(1, 0, 0, 1, 0, 181)"><g clip-path="url(#8e9a5f63d3)"><g clip-path="url(#ab343f0269)"><path fill="#040053" d="M -57.53125 95.972656 L 20.050781 9.160156 L -109.039062 0.890625 Z M -57.53125 95.972656 " fill-opacity="1" fill-rule="nonzero"/></g></g></g></g><path fill="#c1ff72" d="M 20.050781 190.160156 L -22.875 312.664062 L -57.53125 276.972656 Z M 20.050781 190.160156 " fill-opacity="1" fill-rule="nonzero"/><path fill="#c1ff72" d="M 48.996094 291.597656 L -22.875 312.664062 L 20.050781 190.160156 Z M 48.996094 291.597656 " fill-opacity="1" fill-rule="nonzero"/><g mask="url(#bda179b8e1)"><g transform="matrix(1, 0, 0, 1, 0, 189)"><g clip-path="url(#b80a194cdb)"><g clip-path="url(#78993e3cd9)"><path fill="#040053" d="M 48.996094 102.597656 L -22.875 123.664062 L 20.050781 1.160156 Z M 48.996094 102.597656 " fill-opacity="1" fill-rule="nonzero"/></g></g></g></g><path fill="#c1ff72" d="M 84.015625 390.21875 L -22.875 312.664062 L 48.996094 291.597656 Z M 84.015625 390.21875 " fill-opacity="1" fill-rule="nonzero"/><g mask="url(#035fe83013)"><g transform="matrix(1, 0, 0, 1, 0, 290)"><g clip-path="url(#34605b75f2)"><g clip-path="url(#7642ee4e18)"><path fill="#040053" d="M 84.015625 100.21875 L -22.875 22.664062 L 48.996094 1.597656 Z M 84.015625 100.21875 " fill-opacity="1" fill-rule="nonzero"/></g></g></g></g><path fill="#c1ff72" d="M 127.535156 264.566406 L 84.015625 390.21875 L 48.996094 291.597656 Z M 127.535156 264.566406 " fill-opacity="1" fill-rule="nonzero"/><g mask="url(#826ad0137d)"><g transform="matrix(1, 0, 0, 1, 48, 264)"><g clip-path="url(#212b03390f)"><g clip-path="url(#79efce274b)"><path fill="#040053" d="M 79.535156 0.566406 L 36.015625 126.21875 L 0.996094 27.597656 Z M 79.535156 0.566406 " fill-opacity="1" fill-rule="nonzero"/></g></g></g></g><path fill="#c1ff72" d="M 20.050781 190.160156 L 127.535156 264.566406 L 48.996094 291.597656 Z M 20.050781 190.160156 " fill-opacity="1" fill-rule="nonzero"/><g mask="url(#da9af6dec9)"><g transform="matrix(1, 0, 0, 1, 19, 189)"><g clip-path="url(#f5754b5342)"><path fill="#040053" d="M 1.050781 1.160156 L 108.535156 75.566406 L 29.996094 102.597656 Z M 1.050781 1.160156 " fill-opacity="1" fill-rule="nonzero"/></g></g></g><path fill="#c1ff72" d="M 115.132812 181.890625 L 20.050781 190.160156 L 13.074219 131.339844 Z M 115.132812 181.890625 " fill-opacity="1" fill-rule="nonzero"/><path fill="#c1ff72" d="M -29.542969 38.199219 L 35.324219 63.628906 L 13.074219 131.339844 Z M -29.542969 38.199219 " fill-opacity="1" fill-rule="nonzero"/><path fill="#c1ff72" d="M 35.324219 63.628906 L -29.542969 38.199219 L -11.738281 -45.746094 Z M 35.324219 63.628906 " fill-opacity="1" fill-rule="nonzero"/><g mask="url(#16c3c8a78d)"><g transform="matrix(1, 0, 0, 1, 0, 0)"><g clip-path="url(#d775b0e299)"><g clip-path="url(#66c8c7c71b)"><path fill="#100d28" d="M 35.324219 63.628906 L -29.542969 38.199219 L -11.738281 -45.746094 Z M 35.324219 63.628906 " fill-opacity="1" fill-rule="nonzero"/></g></g></g></g><path fill="#c1ff72" d="M 118.308594 102.808594 L 13.074219 131.339844 L 35.324219 63.628906 Z M 118.308594 102.808594 " fill-opacity="1" fill-rule="nonzero"/><path fill="#c1ff72" d="M 115.132812 181.890625 L 13.074219 131.339844 L 118.308594 102.808594 Z M 115.132812 181.890625 " fill-opacity="1" fill-rule="nonzero"/><g mask="url(#89947b2aa3)"><g transform="matrix(1, 0, 0, 1, 12, 101)"><g clip-path="url(#c6ab1b710e)"><path fill="#040053" d="M 103.132812 80.890625 L 1.074219 30.339844 L 106.308594 1.808594 Z M 103.132812 80.890625 " fill-opacity="1" fill-rule="nonzero"/></g></g></g><path fill="#c1ff72" d="M 127.535156 264.566406 L 20.050781 190.160156 L 115.132812 181.890625 Z M 127.535156 264.566406 " fill-opacity="1" fill-rule="nonzero"/><g mask="url(#8b99e98364)"><g transform="matrix(1, 0, 0, 1, 19, 181)"><g clip-path="url(#d29a8817b5)"><g clip-path="url(#6792bbea9b)"><path fill="#040053" d="M 108.535156 83.566406 L 1.050781 9.160156 L 96.132812 0.890625 Z M 108.535156 83.566406 " fill-opacity="1" fill-rule="nonzero"/></g></g></g></g><path fill="#c1ff72" d="M 84.015625 390.21875 L 179.355469 313.617188 L 127.535156 264.566406 Z M 84.015625 390.21875 " fill-opacity="1" fill-rule="nonzero"/><g mask="url(#35ff2aff46)"><g transform="matrix(1, 0, 0, 1, 81, 264)"><g clip-path="url(#62c87d7c06)"><g clip-path="url(#3188934a13)"><path fill="#040053" d="M 3.015625 126.21875 L 98.355469 49.617188 L 46.535156 0.566406 Z M 3.015625 126.21875 " fill-opacity="1" fill-rule="nonzero"/></g></g></g></g><path fill="#c1ff72" d="M 167.777344 201.894531 L 127.535156 264.566406 L 179.355469 313.617188 Z M 167.777344 201.894531 " fill-opacity="1" fill-rule="nonzero"/><g mask="url(#f490a8832b)"><g transform="matrix(1, 0, 0, 1, 125, 199)"><g clip-path="url(#efd137a550)"><g clip-path="url(#83853705a4)"><path fill="#040053" d="M 42.777344 2.894531 L 2.535156 65.566406 L 54.355469 114.617188 Z M 42.777344 2.894531 " fill-opacity="1" fill-rule="nonzero"/></g></g></g></g><path fill="#c1ff72" d="M 127.535156 264.566406 L 167.777344 201.894531 L 115.132812 181.890625 Z M 127.535156 264.566406 " fill-opacity="1" fill-rule="nonzero"/><path fill="#c1ff72" d="M 118.308594 102.808594 L 115.132812 181.890625 L 167.777344 201.894531 Z M 118.308594 102.808594 " fill-opacity="1" fill-rule="nonzero"/><g mask="url(#2a2acf4cc8)"><g transform="matrix(1, 0, 0, 1, 113, 101)"><g clip-path="url(#cecac57487)"><path fill="#040053" d="M 5.308594 1.808594 L 2.132812 80.890625 L 54.777344 100.894531 Z M 5.308594 1.808594 " fill-opacity="1" fill-rule="nonzero"/></g></g></g><path fill="#c1ff72" d="M 179.355469 313.617188 L 233.964844 208.199219 L 167.777344 201.894531 Z M 179.355469 313.617188 " fill-opacity="1" fill-rule="nonzero"/><g mask="url(#69f6c92533)"><g transform="matrix(1, 0, 0, 1, 167, 199)"><g clip-path="url(#ba547fc296)"><g clip-path="url(#4536df98e4)"><path fill="#040053" d="M 12.355469 114.617188 L 66.964844 9.199219 L 0.777344 2.894531 Z M 12.355469 114.617188 " fill-opacity="1" fill-rule="nonzero"/></g></g></g></g><path fill="#c1ff72" d="M 118.308594 102.808594 L 247.066406 143.589844 L 167.777344 201.894531 Z M 118.308594 102.808594 " fill-opacity="1" fill-rule="nonzero"/><g mask="url(#842ce9d6c4)"><g transform="matrix(1, 0, 0, 1, 118, 101)"><g clip-path="url(#234bab40f8)"><g clip-path="url(#2cb6da1364)"><path fill="#100d28" d="M 0.308594 1.808594 L 129.066406 42.589844 L 49.777344 100.894531 Z M 0.308594 1.808594 " fill-opacity="1" fill-rule="nonzero"/></g></g></g></g><path fill="#c1ff72" d="M 35.324219 63.628906 C 35.324219 63.628906 64.582031 -0.671875 65.691406 -0.207031 C 66.804688 0.257812 118.308594 102.808594 118.308594 102.808594 Z M 35.324219 63.628906 " fill-opacity="1" fill-rule="nonzero"/><path fill="#c1ff72" d="M -11.738281 -45.746094 L 65.691406 -0.207031 C 65.691406 -0.207031 35.816406 64.738281 35.324219 63.628906 Z M -11.738281 -45.746094 " fill-opacity="1" fill-rule="nonzero"/><g mask="url(#3f47bc6fe7)"><g transform="matrix(1, 0, 0, 1, 0, 0)"><g clip-path="url(#dd48fc0674)"><g clip-path="url(#d71d9435ec)"><path fill="#040053" d="M -11.738281 -45.746094 L 65.691406 -0.207031 C 65.691406 -0.207031 35.816406 64.738281 35.324219 63.628906 Z M -11.738281 -45.746094 " fill-opacity="1" fill-rule="nonzero"/></g></g></g></g><path fill="#c1ff72" d="M 118.308594 102.808594 L 164.570312 54.402344 L 65.691406 -0.207031 Z M 118.308594 102.808594 " fill-opacity="1" fill-rule="nonzero"/><g mask="url(#2ad1578219)"><g transform="matrix(1, 0, 0, 1, 63, 0)"><g clip-path="url(#4a6008a0be)"><g clip-path="url(#49a21533e2)"><path fill="#040053" d="M 55.308594 102.808594 L 101.570312 54.402344 L 2.691406 -0.207031 Z M 55.308594 102.808594 " fill-opacity="1" fill-rule="nonzero"/></g></g></g></g><path fill="#c1ff72" d="M 247.066406 143.589844 L 118.308594 102.808594 L 164.570312 54.402344 Z M 247.066406 143.589844 " fill-opacity="1" fill-rule="nonzero"/><path fill="#c1ff72" d="M 233.964844 208.199219 L 167.777344 201.894531 L 247.066406 143.589844 Z M 233.964844 208.199219 " fill-opacity="1" fill-rule="nonzero"/><g mask="url(#706781bc05)"><g transform="matrix(1, 0, 0, 1, 167, 142)"><g clip-path="url(#20db05e1ef)"><g clip-path="url(#1af349dbce)"><path fill="#040053" d="M 66.964844 66.199219 L 0.777344 59.894531 L 80.066406 1.589844 Z M 66.964844 66.199219 " fill-opacity="1" fill-rule="nonzero"/></g></g></g></g><path fill="#c1ff72" d="M 179.355469 313.617188 L 259.007812 311.472656 L 233.964844 208.199219 Z M 179.355469 313.617188 " fill-opacity="1" fill-rule="nonzero"/><g mask="url(#dd97b03316)"><g transform="matrix(1, 0, 0, 1, 177, 207)"><g clip-path="url(#cefd0dde3d)"><g clip-path="url(#0590f437ae)"><path fill="#040053" d="M 2.355469 106.617188 L 82.007812 104.472656 L 56.964844 1.199219 Z M 2.355469 106.617188 " fill-opacity="1" fill-rule="nonzero"/></g></g></g></g><path fill="#c1ff72" d="M 259.007812 311.472656 L 297.617188 307.648438 L 233.964844 208.199219 Z M 259.007812 311.472656 " fill-opacity="1" fill-rule="nonzero"/><g mask="url(#87508c1288)"><g transform="matrix(1, 0, 0, 1, 231, 207)"><g clip-path="url(#7798ea8b25)"><g clip-path="url(#3a93bf0fae)"><path fill="#040053" d="M 28.007812 104.472656 L 66.617188 100.648438 L 2.964844 1.199219 Z M 28.007812 104.472656 " fill-opacity="1" fill-rule="nonzero"/></g></g></g></g><path fill="#100d28" d="M -109.429688 182.875 L -137.855469 114.902344 L 16.046875 130.925781 Z M -135.53125 116.632812 L -108.625 180.933594 L 10.074219 131.777344 Z M -135.53125 116.632812 " fill-opacity="1" fill-rule="nonzero"/><path fill="#100d28" d="M 14.289062 132.21875 L -138.683594 116.296875 L -29.234375 37.058594 Z M -134.679688 115.238281 L 11.859375 130.488281 L -29.828125 39.335938 Z M -134.679688 115.238281 " fill-opacity="1" fill-rule="nonzero"/><path fill="#100d28" d="M 20.902344 190.960938 L -112.269531 182.433594 L 13.667969 130.28125 L 20.878906 190.960938 Z M -105.785156 181.375 L 19.222656 189.386719 L 12.453125 132.425781 Z M -105.785156 181.375 " fill-opacity="1" fill-rule="nonzero"/><path fill="#100d28" d="M -57.664062 278.238281 L -110.308594 181.0625 L 21.652344 189.515625 L -57.636719 278.238281 Z M -107.722656 182.71875 L -57.351562 275.679688 L 18.5 190.808594 Z M -107.722656 182.71875 " fill-opacity="1" fill-rule="nonzero"/><path fill="#100d28" d="M -22.566406 314.03125 L -58.542969 276.996094 L 21.988281 186.90625 L -22.566406 314.058594 Z M -56.5 276.945312 L -23.160156 311.265625 L 18.136719 193.441406 Z M -56.5 276.945312 " fill-opacity="1" fill-rule="nonzero"/><path fill="#100d28" d="M -24.039062 313.773438 L -23.546875 312.402344 L 20.15625 187.707031 L 49.925781 292.089844 L -24.011719 313.773438 Z M 20 192.617188 L -21.660156 311.523438 L 48.09375 291.082031 Z M 20 192.617188 " fill-opacity="1" fill-rule="nonzero"/><path fill="#100d28" d="M 85.488281 391.953125 L -24.710938 312.429688 L 49.4375 290.695312 L 85.460938 391.953125 Z M -21.015625 312.894531 L 82.566406 388.515625 L 48.53125 292.503906 L -21.042969 312.894531 Z M -21.015625 312.894531 " fill-opacity="1" fill-rule="nonzero"/><path fill="#100d28" d="M 83.988281 392.210938 L 48.039062 291.160156 L 128.878906 263.351562 L 83.988281 392.238281 Z M 49.953125 292.039062 L 84.066406 388.257812 L 126.191406 265.808594 L 49.980469 292.039062 Z M 49.953125 292.039062 " fill-opacity="1" fill-rule="nonzero"/><path fill="#100d28" d="M 48.480469 292.554688 L 18.757812 188.378906 L 129.140625 264.800781 Z M 21.316406 191.96875 L 49.460938 290.644531 L 125.855469 264.359375 L 21.292969 191.96875 Z M 21.316406 191.96875 " fill-opacity="1" fill-rule="nonzero"/><path fill="#100d28" d="M 19.40625 190.960938 L 12.167969 130.074219 L 117.820312 182.40625 Z M 13.953125 132.605469 L 20.695312 189.359375 L 112.417969 181.375 Z M 13.953125 132.605469 " fill-opacity="1" fill-rule="nonzero"/><path fill="#100d28" d="M 13.175781 133.382812 L -30.992188 36.828125 L 36.230469 63.1875 Z M -28.097656 39.542969 L 12.945312 129.296875 L 34.394531 64.042969 Z M -28.097656 39.542969 " fill-opacity="1" fill-rule="nonzero"/><path fill="#100d28" d="M 36.695312 64.972656 L -30.398438 38.664062 L -30.265625 38.042969 L -11.96875 -48.171875 L 36.71875 64.972656 Z M -28.691406 37.730469 L 33.929688 62.285156 L -11.503906 -43.316406 Z M -28.691406 37.730469 " fill-opacity="1" fill-rule="nonzero"/><path fill="#100d28" d="M 11.9375 132.425781 L 34.886719 62.59375 L 120.457031 102.988281 L 11.9375 132.398438 Z M 35.765625 64.660156 L 14.210938 130.28125 L 116.191406 102.628906 L 35.789062 64.660156 Z M 35.765625 64.660156 " fill-opacity="1" fill-rule="nonzero"/><path fill="#100d28" d="M 115.828125 183.078125 L 10.980469 131.160156 L 119.085938 101.851562 L 115.828125 183.105469 Z M 15.140625 131.546875 L 114.433594 180.726562 L 117.535156 103.789062 L 15.167969 131.546875 Z M 15.140625 131.546875 " fill-opacity="1" fill-rule="nonzero"/><path fill="#100d28" d="M 128.519531 266.144531 L 17.957031 189.59375 L 115.777344 181.089844 L 128.542969 266.144531 Z M 22.171875 190.703125 L 126.527344 262.964844 L 114.484375 182.691406 L 22.171875 190.730469 Z M 22.171875 190.703125 " fill-opacity="1" fill-rule="nonzero"/><path fill="#100d28" d="M 173.847656 307.363281 L 127.277344 263.300781 L 86.394531 380.660156 L 84.222656 386.886719 L 82.851562 390.789062 L 82.414062 392.082031 L 87.789062 387.792969 L 90.167969 385.878906 L 90.425781 385.671875 L 175.554688 317.574219 L 179.742188 314.238281 L 180.570312 313.722656 Z M 174.132812 315.996094 L 89.699219 384.429688 L 88.355469 386.1875 L 86.003906 388.101562 L 85.644531 388.386719 L 85.722656 388.152344 L 86.289062 386.550781 L 87.945312 381.691406 L 127.796875 265.832031 L 173.175781 308.785156 L 178.140625 313.464844 Z M 174.132812 315.996094 " fill-opacity="1" fill-rule="nonzero"/><path fill="#100d28" d="M 180.285156 315.53125 L 126.554688 264.695312 L 168.292969 199.722656 Z M 128.46875 264.464844 L 178.398438 311.707031 L 167.257812 204.089844 Z M 128.46875 264.464844 " fill-opacity="1" fill-rule="nonzero"/><path fill="#100d28" d="M 127.070312 266.632812 L 114.203125 180.753906 L 168.914062 201.53125 L 127.097656 266.632812 Z M 116.035156 183.054688 L 127.949219 262.523438 L 166.640625 202.28125 L 116.011719 183.054688 Z M 116.035156 183.054688 " fill-opacity="1" fill-rule="nonzero"/><path fill="#100d28" d="M 169.300781 203.265625 L 114.355469 182.40625 L 114.355469 181.863281 C 114.355469 181.863281 117.664062 99.886719 117.664062 99.886719 L 169.273438 203.238281 Z M 115.882812 181.398438 L 166.277344 200.523438 L 118.929688 105.726562 Z M 115.882812 181.398438 " fill-opacity="1" fill-rule="nonzero"/><path fill="#100d28" d="M 178.863281 316.152344 L 166.949219 201.066406 L 235.125 207.582031 Z M 168.601562 202.722656 L 179.820312 311.058594 L 232.773438 208.847656 Z M 168.601562 202.722656 " fill-opacity="1" fill-rule="nonzero"/><path fill="#100d28" d="M 167.519531 203.003906 L 116.863281 101.566406 L 248.695312 143.304688 Z M 119.757812 104.046875 L 168.058594 200.78125 L 245.464844 143.875 L 119.757812 104.074219 Z M 119.757812 104.046875 " fill-opacity="1" fill-rule="nonzero"/><path fill="#100d28" d="M 119.9375 104.410156 L 34.34375 63.988281 L 34.652344 63.316406 C 34.730469 63.164062 42.042969 47.0625 49.410156 31.21875 C 64.605469 -1.472656 65.019531 -1.292969 65.976562 -0.878906 C 66.3125 -0.722656 67.347656 -0.285156 118.957031 102.496094 L 119.914062 104.410156 Z M 36.308594 63.265625 L 116.683594 101.230469 C 102.726562 73.476562 70.1875 8.96875 65.640625 1.085938 C 62.433594 6.488281 46.824219 40.160156 36.308594 63.292969 Z M 36.308594 63.265625 " fill-opacity="1" fill-rule="nonzero"/><path fill="#100d28" d="M 35.351562 64.378906 L 34.859375 64.378906 C 34.859375 64.378906 34.652344 63.914062 34.652344 63.914062 C 34.1875 62.800781 -12.410156 -45.460938 -12.410156 -45.460938 L -13.3125 -47.554688 L 66.648438 -0.515625 L 66.363281 0.101562 C 37.109375 63.707031 35.972656 64.378906 35.351562 64.378906 Z M -10.160156 -43.960938 C -4.113281 -29.902344 30.699219 51.015625 35.453125 62.078125 C 38.890625 55.773438 54.242188 22.820312 64.710938 0.078125 L -10.1875 -43.988281 Z M -10.160156 -43.960938 " fill-opacity="1" fill-rule="nonzero"/><path fill="#100d28" d="M 118.128906 104.074219 L 117.664062 103.144531 L 63.933594 -2.042969 L 165.785156 54.195312 L 165.113281 54.894531 L 118.128906 104.046875 Z M 67.449219 1.601562 L 118.492188 101.542969 L 163.355469 54.582031 Z M 67.449219 1.601562 " fill-opacity="1" fill-rule="nonzero"/><path fill="#100d28" d="M 66.285156 1.007812 L -14.140625 -46.3125 L 72.023438 -53.1875 L 71.921875 -52.308594 Z M -9.332031 -45.203125 L 65.070312 -1.421875 L 70.371094 -51.558594 Z M -9.332031 -45.203125 " fill-opacity="1" fill-rule="nonzero"/><path fill="#100d28" d="M 165.425781 55.71875 L 63.597656 -0.515625 L 159.066406 -21.296875 L 165.425781 55.695312 Z M 67.785156 0.101562 L 163.71875 53.082031 L 157.722656 -19.460938 Z M 67.785156 0.101562 " fill-opacity="1" fill-rule="nonzero"/><path fill="#100d28" d="M 64.710938 1.886719 L 70.5 -52.878906 L 70.886719 -53.058594 L 151.003906 -88.980469 Z M 71.867188 -51.871094 L 66.621094 -2.300781 L 144.722656 -84.5625 L 71.867188 -51.894531 Z M 71.867188 -51.871094 " fill-opacity="1" fill-rule="nonzero"/><path fill="#100d28" d="M 63.496094 1.035156 L 148.394531 -88.359375 L 159.246094 -19.796875 Z M 147.386719 -85.15625 L 67.886719 -1.421875 L 157.542969 -20.933594 Z M 147.386719 -85.15625 " fill-opacity="1" fill-rule="nonzero"/><path fill="#100d28" d="M 249.519531 145.140625 L 116.941406 103.167969 L 164.570312 53.34375 L 165.113281 53.910156 Z M 119.65625 102.472656 L 244.609375 142.039062 L 164.546875 55.488281 Z M 119.65625 102.472656 " fill-opacity="1" fill-rule="nonzero"/><path fill="#100d28" d="M 234.558594 209.027344 L 233.886719 208.976562 L 165.785156 202.464844 L 248.203125 141.859375 Z M 169.792969 201.351562 L 233.367188 207.425781 L 245.980469 145.347656 L 169.816406 201.351562 Z M 169.792969 201.351562 " fill-opacity="1" fill-rule="nonzero"/><path fill="#100d28" d="M 286.996094 84.976562 L 163.875 54.996094 L 163.820312 54.453125 L 157.488281 -22.070312 L 158.832031 -20.960938 L 286.96875 84.976562 Z M 165.269531 53.808594 L 281.078125 82.003906 L 159.273438 -18.683594 Z M 165.269531 53.808594 " fill-opacity="1" fill-rule="nonzero"/><path fill="#100d28" d="M 285.367188 85.570312 L 156.894531 -20.625 L 248.074219 -51.765625 L 285.367188 85.597656 Z M 159.894531 -20.082031 L 282.730469 81.460938 L 247.066406 -49.851562 Z M 159.894531 -20.082031 " fill-opacity="1" fill-rule="nonzero"/><path fill="#100d28" d="M 333.179688 10.441406 L 247.351562 -50.136719 L 247.765625 -51.558594 Z M 333.179688 10.441406 " fill-opacity="1" fill-rule="nonzero"/><path fill="#100d28" d="M 299.8125 -95.234375 L 333.902344 10.261719 L 332.453125 10.648438 Z M 299.8125 -95.234375 " fill-opacity="1" fill-rule="nonzero"/><path fill="#100d28" d="M 247.195312 144.804688 L 162.347656 53.082031 L 285.210938 83.011719 Z M 166.792969 55.695312 L 246.960938 142.347656 L 282.886719 83.96875 Z M 166.792969 55.695312 " fill-opacity="1" fill-rule="nonzero"/><path fill="#100d28" d="M 178.113281 314.394531 L 234.222656 206.105469 L 259.523438 310.957031 C 259.601562 311.265625 259.523438 311.578125 259.34375 311.835938 C 259.160156 312.09375 258.875 312.222656 258.539062 312.25 L 178.140625 314.417969 Z M 233.703125 210.320312 L 180.59375 312.84375 L 257.921875 310.75 Z M 233.703125 210.320312 " fill-opacity="1" fill-rule="nonzero"/><path fill="#100d28" d="M 232.929688 209.542969 L 246.472656 142.761719 L 368.714844 130.976562 Z M 247.660156 144.441406 L 234.972656 206.90625 L 363.726562 131.753906 Z M 247.660156 144.441406 " fill-opacity="1" fill-rule="nonzero"/><path fill="#100d28" d="M 367.914062 132.347656 L 245.878906 144.160156 L 283.996094 82.183594 Z M 248.304688 143.019531 L 364.554688 130.359375 L 284.101562 84.820312 Z M 248.304688 143.019531 " fill-opacity="1" fill-rule="nonzero"/><path fill="#100d28" d="M 283.324219 83.296875 L 333.179688 10.441406 L 284.746094 83.710938 Z M 283.324219 83.296875 " fill-opacity="1" fill-rule="nonzero"/><path fill="#100d28" d="M 365.640625 131.804688 L 283.453125 83.941406 L 284.617188 83.0625 L 366.828125 130.902344 Z M 365.640625 131.804688 " fill-opacity="1" fill-rule="nonzero"/><path fill="#100d28" d="M 259.1875 312.195312 C 258.746094 312.195312 258.359375 311.886719 258.230469 311.449219 L 232.207031 204.089844 L 298.910156 308.292969 L 259.289062 312.195312 C 259.289062 312.195312 259.210938 312.195312 259.1875 312.195312 Z M 259.136719 310.722656 Z M 235.71875 212.359375 L 259.574219 310.671875 L 296.351562 307.027344 L 235.71875 212.335938 Z M 235.71875 212.359375 " fill-opacity="1" fill-rule="nonzero"/><path fill="#100d28" d="M 297.902344 309.457031 L 232.878906 207.914062 L 367.371094 129.96875 Z M 235.046875 208.535156 L 297.382812 305.867188 L 365.097656 132.734375 L 235.046875 208.511719 Z M 235.046875 208.535156 " fill-opacity="1" fill-rule="nonzero"/><path fill="#100d28" d="M 365.484375 131.441406 L 332.6875 10.519531 C 332.6875 10.519531 332.507812 9.019531 332.507812 9.019531 C 332.507812 9.019531 333.539062 10.128906 333.539062 10.128906 C 333.746094 10.363281 480.207031 49.648438 480.386719 49.851562 C 480.386719 50.113281 366.363281 131.210938 366.257812 131.441406 C 365.535156 131.183594 479.949219 49.722656 479.84375 49.570312 C 480.414062 51.402344 332.738281 10.335938 332.816406 10.777344 C 332.816406 10.777344 333.667969 10.390625 333.667969 10.390625 L 366.957031 131.261719 C 366.957031 131.261719 365.484375 131.441406 365.484375 131.441406 Z M 365.484375 131.441406 " fill-opacity="1" fill-rule="nonzero"/><path fill="#100d28" d="M 296.480469 309.042969 L 365.898438 129.761719 L 432.757812 226.34375 L 296.480469 309.019531 Z M 366.570312 132.917969 L 298.804688 306.253906 L 430.429688 225.851562 Z M 366.570312 132.917969 " fill-opacity="1" fill-rule="nonzero"/><path fill="#100d28" d="M 433.429688 227.171875 L 427.640625 226.160156 L 428.128906 223.035156 L 365.121094 131.160156 L 365.84375 130.71875 L 480.980469 48.300781 L 480.75 49.90625 L 429.707031 222.621094 L 433.453125 227.195312 Z M 429.34375 224.949219 L 429.757812 225.023438 L 429.394531 224.585938 Z M 367.34375 131.519531 L 428.441406 221.070312 L 479.042969 51.273438 L 367.371094 131.546875 Z M 367.34375 131.519531 " fill-opacity="1" fill-rule="nonzero"/><path fill="#100d28" d="M 373.832031 335.277344 L 373.210938 335.070312 L 295.703125 307.777344 L 433.222656 224.480469 Z M 299.53125 307.546875 L 373.082031 333.441406 L 429.9375 227.738281 Z M 299.53125 307.546875 " fill-opacity="1" fill-rule="nonzero"/><path fill="#100d28" d="M 472.011719 313.464844 L 431.207031 226.808594 L 435.625 224.015625 L 527.398438 236.242188 L 527.628906 236.730469 C 527.8125 237.121094 527.757812 237.535156 527.550781 237.894531 L 527.007812 237.535156 L 527.007812 237.765625 C 527.007812 237.765625 432.394531 225.902344 432.394531 225.902344 L 473.125 312.480469 L 472.039062 313.488281 Z M 526.285156 237.042969 C 526.285156 237.042969 526.234375 237.222656 526.285156 237.328125 L 526.542969 237.199219 L 526.3125 237.042969 Z M 526.285156 237.042969 " fill-opacity="1" fill-rule="nonzero"/><path fill="#100d28" d="M 507.910156 419.375 L 526.585938 237.695312 L 528.054688 237.84375 L 509.375 419.527344 Z M 507.910156 419.375 " fill-opacity="1" fill-rule="nonzero"/><path fill="#100d28" d="M 471.960938 312.53125 C 487.132812 291.804688 510.367188 260.042969 525.304688 239.652344 C 525.5625 239.316406 526.335938 238.230469 526.597656 237.894531 C 526.699219 237.714844 526.984375 237.378906 527.085938 237.714844 C 526.90625 237.144531 526.335938 238.335938 526.183594 238.488281 C 526.183594 238.488281 525.328125 239.679688 525.328125 239.679688 C 518.457031 249.394531 507.058594 265.496094 500.082031 275.34375 C 500.082031 275.34375 473.152344 313.410156 473.152344 313.410156 C 473.152344 313.410156 471.9375 312.53125 471.9375 312.53125 Z M 471.960938 312.53125 " fill-opacity="1" fill-rule="nonzero"/><path fill="#100d28" d="M 80.398438 -2.195312 C 80.398438 -1.351562 80.316406 -0.511719 80.148438 0.320312 C 79.984375 1.148438 79.738281 1.957031 79.414062 2.738281 C 79.089844 3.519531 78.695312 4.265625 78.222656 4.96875 C 77.753906 5.671875 77.21875 6.324219 76.621094 6.921875 C 76.019531 7.519531 75.371094 8.054688 74.664062 8.527344 C 73.960938 8.996094 73.21875 9.394531 72.4375 9.71875 C 71.652344 10.042969 70.847656 10.285156 70.015625 10.453125 C 69.1875 10.617188 68.347656 10.699219 67.5 10.699219 C 66.652344 10.699219 65.816406 10.617188 64.984375 10.453125 C 64.15625 10.285156 63.347656 10.042969 62.566406 9.71875 C 61.785156 9.394531 61.039062 8.996094 60.335938 8.527344 C 59.632812 8.054688 58.980469 7.519531 58.382812 6.921875 C 57.78125 6.324219 57.25 5.671875 56.777344 4.96875 C 56.308594 4.265625 55.910156 3.519531 55.585938 2.738281 C 55.261719 1.957031 55.015625 1.148438 54.851562 0.320312 C 54.6875 -0.511719 54.605469 -1.351562 54.605469 -2.195312 C 54.605469 -3.042969 54.6875 -3.882812 54.851562 -4.710938 C 55.015625 -5.542969 55.261719 -6.351562 55.585938 -7.132812 C 55.910156 -7.914062 56.308594 -8.65625 56.777344 -9.363281 C 57.25 -10.066406 57.78125 -10.71875 58.382812 -11.316406 C 58.980469 -11.914062 59.632812 -12.449219 60.335938 -12.917969 C 61.039062 -13.390625 61.785156 -13.789062 62.566406 -14.113281 C 63.347656 -14.433594 64.15625 -14.679688 64.984375 -14.84375 C 65.816406 -15.011719 66.652344 -15.09375 67.5 -15.09375 C 68.347656 -15.09375 69.1875 -15.011719 70.015625 -14.84375 C 70.847656 -14.679688 71.652344 -14.433594 72.4375 -14.113281 C 73.21875 -13.789062 73.960938 -13.390625 74.664062 -12.917969 C 75.371094 -12.449219 76.019531 -11.914062 76.621094 -11.316406 C 77.21875 -10.71875 77.753906 -10.066406 78.222656 -9.363281 C 78.695312 -8.65625 79.089844 -7.914062 79.414062 -7.132812 C 79.738281 -6.351562 79.984375 -5.542969 80.148438 -4.710938 C 80.316406 -3.882812 80.398438 -3.042969 80.398438 -2.195312 Z M 80.398438 -2.195312 " fill-opacity="1" fill-rule="nonzero"/><path fill="#100d28" d="M 299.554688 83.503906 C 299.554688 84.347656 299.472656 85.1875 299.308594 86.019531 C 299.140625 86.847656 298.898438 87.65625 298.574219 88.4375 C 298.25 89.21875 297.851562 89.964844 297.382812 90.667969 C 296.910156 91.371094 296.378906 92.023438 295.777344 92.621094 C 295.179688 93.21875 294.527344 93.753906 293.824219 94.226562 C 293.121094 94.695312 292.375 95.09375 291.59375 95.417969 C 290.8125 95.742188 290.003906 95.984375 289.175781 96.152344 C 288.34375 96.316406 287.507812 96.398438 286.660156 96.398438 C 285.8125 96.398438 284.972656 96.316406 284.144531 96.152344 C 283.3125 95.984375 282.507812 95.742188 281.722656 95.417969 C 280.941406 95.09375 280.199219 94.695312 279.496094 94.226562 C 278.789062 93.753906 278.140625 93.21875 277.539062 92.621094 C 276.941406 92.023438 276.40625 91.371094 275.9375 90.667969 C 275.464844 89.964844 275.070312 89.21875 274.746094 88.4375 C 274.421875 87.65625 274.175781 86.847656 274.011719 86.019531 C 273.84375 85.1875 273.761719 84.347656 273.761719 83.503906 C 273.761719 82.65625 273.84375 81.816406 274.011719 80.988281 C 274.175781 80.15625 274.421875 79.347656 274.746094 78.566406 C 275.070312 77.785156 275.464844 77.042969 275.9375 76.335938 C 276.40625 75.632812 276.941406 74.980469 277.539062 74.382812 C 278.140625 73.785156 278.789062 73.25 279.496094 72.78125 C 280.199219 72.308594 280.941406 71.910156 281.722656 71.585938 C 282.507812 71.265625 283.3125 71.019531 284.144531 70.855469 C 284.972656 70.6875 285.8125 70.605469 286.660156 70.605469 C 287.507812 70.605469 288.34375 70.6875 289.175781 70.855469 C 290.003906 71.019531 290.8125 71.265625 291.59375 71.585938 C 292.375 71.910156 293.121094 72.308594 293.824219 72.78125 C 294.527344 73.25 295.179688 73.785156 295.777344 74.382812 C 296.378906 74.980469 296.910156 75.632812 297.382812 76.335938 C 297.851562 77.042969 298.25 77.785156 298.574219 78.566406 C 298.898438 79.347656 299.140625 80.15625 299.308594 80.988281 C 299.472656 81.816406 299.554688 82.65625 299.554688 83.503906 Z M 299.554688 83.503906 " fill-opacity="1" fill-rule="nonzero"/><path fill="#100d28" d="M 339.949219 10.441406 C 339.949219 10.886719 339.90625 11.324219 339.820312 11.761719 C 339.734375 12.199219 339.605469 12.621094 339.433594 13.03125 C 339.265625 13.441406 339.054688 13.832031 338.808594 14.203125 C 338.5625 14.574219 338.28125 14.914062 337.964844 15.230469 C 337.652344 15.542969 337.308594 15.824219 336.941406 16.070312 C 336.570312 16.316406 336.179688 16.527344 335.769531 16.695312 C 335.359375 16.867188 334.9375 16.996094 334.5 17.082031 C 334.0625 17.167969 333.625 17.210938 333.179688 17.210938 C 332.734375 17.210938 332.292969 17.167969 331.859375 17.082031 C 331.421875 16.996094 331 16.867188 330.585938 16.695312 C 330.175781 16.527344 329.785156 16.316406 329.417969 16.070312 C 329.046875 15.824219 328.707031 15.542969 328.390625 15.230469 C 328.078125 14.914062 327.796875 14.574219 327.546875 14.203125 C 327.300781 13.832031 327.09375 13.441406 326.921875 13.03125 C 326.753906 12.621094 326.625 12.199219 326.539062 11.761719 C 326.449219 11.324219 326.40625 10.886719 326.40625 10.441406 C 326.40625 9.996094 326.449219 9.554688 326.539062 9.121094 C 326.625 8.683594 326.753906 8.261719 326.921875 7.851562 C 327.09375 7.4375 327.300781 7.046875 327.546875 6.679688 C 327.796875 6.308594 328.078125 5.96875 328.390625 5.652344 C 328.707031 5.339844 329.046875 5.058594 329.417969 4.8125 C 329.785156 4.5625 330.175781 4.355469 330.585938 4.183594 C 331 4.015625 331.421875 3.886719 331.859375 3.800781 C 332.292969 3.714844 332.734375 3.667969 333.179688 3.667969 C 333.625 3.667969 334.0625 3.714844 334.5 3.800781 C 334.9375 3.886719 335.359375 4.015625 335.769531 4.183594 C 336.179688 4.355469 336.570312 4.5625 336.941406 4.8125 C 337.308594 5.058594 337.652344 5.339844 337.964844 5.652344 C 338.28125 5.96875 338.5625 6.308594 338.808594 6.679688 C 339.054688 7.046875 339.265625 7.4375 339.433594 7.851562 C 339.605469 8.261719 339.734375 8.683594 339.820312 9.121094 C 339.90625 9.554688 339.949219 9.996094 339.949219 10.441406 Z M 339.949219 10.441406 " fill-opacity="1" fill-rule="nonzero"/><path fill="#100d28" d="M 30.234375 190.160156 C 30.234375 190.828125 30.167969 191.492188 30.039062 192.148438 C 29.90625 192.804688 29.714844 193.441406 29.457031 194.058594 C 29.203125 194.675781 28.890625 195.261719 28.515625 195.816406 C 28.144531 196.375 27.722656 196.886719 27.25 197.359375 C 26.777344 197.835938 26.265625 198.257812 25.707031 198.628906 C 25.152344 199 24.566406 199.3125 23.949219 199.570312 C 23.328125 199.824219 22.691406 200.015625 22.039062 200.148438 C 21.382812 200.277344 20.71875 200.34375 20.050781 200.34375 C 19.382812 200.34375 18.71875 200.277344 18.066406 200.148438 C 17.410156 200.015625 16.773438 199.824219 16.152344 199.570312 C 15.535156 199.3125 14.949219 199 14.394531 198.628906 C 13.839844 198.257812 13.324219 197.835938 12.851562 197.359375 C 12.378906 196.886719 11.957031 196.375 11.585938 195.816406 C 11.214844 195.261719 10.898438 194.675781 10.644531 194.058594 C 10.386719 193.441406 10.195312 192.804688 10.0625 192.148438 C 9.933594 191.492188 9.867188 190.828125 9.867188 190.160156 C 9.867188 189.492188 9.933594 188.832031 10.0625 188.175781 C 10.195312 187.519531 10.386719 186.882812 10.644531 186.265625 C 10.898438 185.648438 11.214844 185.058594 11.585938 184.503906 C 11.957031 183.949219 12.378906 183.433594 12.851562 182.960938 C 13.324219 182.488281 13.839844 182.066406 14.394531 181.695312 C 14.949219 181.324219 15.535156 181.007812 16.152344 180.753906 C 16.773438 180.496094 17.410156 180.304688 18.066406 180.175781 C 18.71875 180.042969 19.382812 179.980469 20.050781 179.980469 C 20.71875 179.980469 21.382812 180.042969 22.039062 180.175781 C 22.691406 180.304688 23.328125 180.496094 23.949219 180.753906 C 24.566406 181.007812 25.152344 181.324219 25.707031 181.695312 C 26.265625 182.066406 26.777344 182.488281 27.25 182.960938 C 27.722656 183.433594 28.144531 183.949219 28.515625 184.503906 C 28.890625 185.058594 29.203125 185.648438 29.457031 186.265625 C 29.714844 186.882812 29.90625 187.519531 30.039062 188.175781 C 30.167969 188.832031 30.234375 189.492188 30.234375 190.160156 Z M 30.234375 190.160156 " fill-opacity="1" fill-rule="nonzero"/><path fill="#100d28" d="M 23.253906 133.382812 C 23.253906 134.050781 23.191406 134.710938 23.058594 135.367188 C 22.929688 136.023438 22.734375 136.660156 22.480469 137.277344 C 22.226562 137.894531 21.910156 138.484375 21.539062 139.039062 C 21.167969 139.59375 20.746094 140.109375 20.273438 140.582031 C 19.800781 141.054688 19.285156 141.476562 18.730469 141.847656 C 18.175781 142.21875 17.585938 142.53125 16.96875 142.789062 C 16.351562 143.042969 15.714844 143.238281 15.058594 143.367188 C 14.402344 143.5 13.742188 143.5625 13.074219 143.5625 C 12.40625 143.5625 11.742188 143.5 11.085938 143.367188 C 10.429688 143.238281 9.792969 143.042969 9.175781 142.789062 C 8.558594 142.53125 7.972656 142.21875 7.414062 141.847656 C 6.859375 141.476562 6.34375 141.054688 5.871094 140.582031 C 5.398438 140.109375 4.976562 139.59375 4.605469 139.039062 C 4.234375 138.484375 3.921875 137.894531 3.664062 137.277344 C 3.410156 136.660156 3.214844 136.023438 3.085938 135.367188 C 2.957031 134.710938 2.890625 134.050781 2.890625 133.382812 C 2.890625 132.714844 2.957031 132.050781 3.085938 131.394531 C 3.214844 130.738281 3.410156 130.101562 3.664062 129.484375 C 3.921875 128.867188 4.234375 128.28125 4.605469 127.722656 C 4.976562 127.167969 5.398438 126.652344 5.871094 126.179688 C 6.34375 125.707031 6.859375 125.285156 7.414062 124.914062 C 7.972656 124.542969 8.558594 124.230469 9.175781 123.972656 C 9.792969 123.71875 10.429688 123.523438 11.085938 123.394531 C 11.742188 123.265625 12.40625 123.199219 13.074219 123.199219 C 13.742188 123.199219 14.402344 123.265625 15.058594 123.394531 C 15.714844 123.523438 16.351562 123.71875 16.96875 123.972656 C 17.585938 124.230469 18.175781 124.542969 18.730469 124.914062 C 19.285156 125.285156 19.800781 125.707031 20.273438 126.179688 C 20.746094 126.652344 21.167969 127.167969 21.539062 127.722656 C 21.910156 128.28125 22.226562 128.867188 22.480469 129.484375 C 22.734375 130.101562 22.929688 130.738281 23.058594 131.394531 C 23.191406 132.050781 23.253906 132.714844 23.253906 133.382812 Z M 23.253906 133.382812 " fill-opacity="1" fill-rule="nonzero"/><path fill="#100d28" d="M 129.683594 99.007812 C 129.683594 99.675781 129.617188 100.339844 129.484375 100.996094 C 129.355469 101.652344 129.164062 102.289062 128.90625 102.90625 C 128.652344 103.523438 128.335938 104.109375 127.964844 104.664062 C 127.59375 105.222656 127.171875 105.734375 126.699219 106.210938 C 126.226562 106.683594 125.710938 107.105469 125.15625 107.476562 C 124.601562 107.847656 124.011719 108.160156 123.394531 108.417969 C 122.777344 108.671875 122.140625 108.867188 121.484375 108.996094 C 120.828125 109.125 120.167969 109.191406 119.5 109.191406 C 118.832031 109.191406 118.167969 109.125 117.511719 108.996094 C 116.855469 108.867188 116.21875 108.671875 115.601562 108.417969 C 114.984375 108.160156 114.398438 107.847656 113.84375 107.476562 C 113.285156 107.105469 112.773438 106.683594 112.300781 106.210938 C 111.828125 105.734375 111.402344 105.222656 111.03125 104.664062 C 110.660156 104.109375 110.347656 103.523438 110.089844 102.90625 C 109.835938 102.289062 109.644531 101.652344 109.511719 100.996094 C 109.382812 100.339844 109.316406 99.675781 109.316406 99.007812 C 109.316406 98.339844 109.382812 97.679688 109.511719 97.023438 C 109.644531 96.367188 109.835938 95.730469 110.089844 95.113281 C 110.347656 94.496094 110.660156 93.90625 111.03125 93.351562 C 111.402344 92.796875 111.828125 92.28125 112.300781 91.808594 C 112.773438 91.335938 113.285156 90.914062 113.84375 90.542969 C 114.398438 90.171875 114.984375 89.855469 115.601562 89.601562 C 116.21875 89.34375 116.855469 89.152344 117.511719 89.023438 C 118.167969 88.890625 118.832031 88.828125 119.5 88.828125 C 120.167969 88.828125 120.828125 88.890625 121.484375 89.023438 C 122.140625 89.152344 122.777344 89.34375 123.394531 89.601562 C 124.011719 89.855469 124.601562 90.171875 125.15625 90.542969 C 125.710938 90.914062 126.226562 91.335938 126.699219 91.808594 C 127.171875 92.28125 127.59375 92.796875 127.964844 93.351562 C 128.335938 93.90625 128.652344 94.496094 128.90625 95.113281 C 129.164062 95.730469 129.355469 96.367188 129.484375 97.023438 C 129.617188 97.679688 129.683594 98.339844 129.683594 99.007812 Z M 129.683594 99.007812 " fill-opacity="1" fill-rule="nonzero"/><path fill="#100d28" d="M 246.007812 208.382812 C 246.007812 209.171875 245.929688 209.957031 245.773438 210.730469 C 245.621094 211.507812 245.390625 212.257812 245.089844 212.988281 C 244.785156 213.71875 244.414062 214.414062 243.976562 215.070312 C 243.539062 215.730469 243.039062 216.339844 242.480469 216.898438 C 241.917969 217.457031 241.3125 217.957031 240.652344 218.394531 C 239.996094 218.835938 239.300781 219.207031 238.570312 219.507812 C 237.839844 219.808594 237.089844 220.039062 236.3125 220.191406 C 235.535156 220.347656 234.753906 220.425781 233.964844 220.425781 C 233.171875 220.425781 232.390625 220.347656 231.613281 220.191406 C 230.835938 220.039062 230.085938 219.808594 229.355469 219.507812 C 228.625 219.207031 227.929688 218.835938 227.273438 218.394531 C 226.613281 217.957031 226.007812 217.457031 225.445312 216.898438 C 224.886719 216.339844 224.386719 215.730469 223.949219 215.070312 C 223.511719 214.414062 223.140625 213.71875 222.835938 212.988281 C 222.535156 212.257812 222.304688 211.507812 222.152344 210.730469 C 221.996094 209.957031 221.917969 209.171875 221.917969 208.382812 C 221.917969 207.589844 221.996094 206.808594 222.152344 206.03125 C 222.304688 205.257812 222.535156 204.503906 222.835938 203.773438 C 223.140625 203.042969 223.511719 202.347656 223.949219 201.691406 C 224.386719 201.03125 224.886719 200.425781 225.445312 199.867188 C 226.007812 199.304688 226.613281 198.808594 227.273438 198.367188 C 227.929688 197.929688 228.625 197.558594 229.355469 197.253906 C 230.085938 196.953125 230.835938 196.722656 231.613281 196.570312 C 232.390625 196.414062 233.171875 196.335938 233.964844 196.335938 C 234.753906 196.335938 235.535156 196.414062 236.3125 196.570312 C 237.089844 196.722656 237.839844 196.953125 238.570312 197.253906 C 239.300781 197.558594 239.996094 197.929688 240.652344 198.367188 C 241.3125 198.808594 241.917969 199.304688 242.480469 199.867188 C 243.039062 200.425781 243.539062 201.03125 243.976562 201.691406 C 244.414062 202.347656 244.785156 203.042969 245.089844 203.773438 C 245.390625 204.503906 245.621094 205.257812 245.773438 206.03125 C 245.929688 206.808594 246.007812 207.589844 246.007812 208.382812 Z M 246.007812 208.382812 " fill-opacity="1" fill-rule="nonzero"/><path fill="#100d28" d="M 440.535156 225.566406 C 440.535156 226.359375 440.457031 227.140625 440.304688 227.917969 C 440.148438 228.691406 439.921875 229.445312 439.617188 230.175781 C 439.316406 230.90625 438.945312 231.601562 438.503906 232.257812 C 438.066406 232.914062 437.566406 233.523438 437.007812 234.082031 C 436.449219 234.644531 435.839844 235.140625 435.183594 235.582031 C 434.523438 236.019531 433.832031 236.390625 433.101562 236.695312 C 432.371094 236.996094 431.617188 237.226562 430.839844 237.378906 C 430.066406 237.535156 429.28125 237.609375 428.492188 237.609375 C 427.699219 237.609375 426.917969 237.535156 426.140625 237.378906 C 425.367188 237.226562 424.613281 236.996094 423.882812 236.695312 C 423.152344 236.390625 422.457031 236.019531 421.800781 235.582031 C 421.144531 235.140625 420.535156 234.644531 419.976562 234.082031 C 419.417969 233.523438 418.917969 232.914062 418.476562 232.257812 C 418.039062 231.601562 417.667969 230.90625 417.363281 230.175781 C 417.0625 229.445312 416.835938 228.691406 416.679688 227.917969 C 416.527344 227.140625 416.449219 226.359375 416.449219 225.566406 C 416.449219 224.777344 416.527344 223.992188 416.679688 223.21875 C 416.835938 222.441406 417.0625 221.6875 417.363281 220.957031 C 417.667969 220.226562 418.039062 219.535156 418.476562 218.875 C 418.917969 218.21875 419.417969 217.609375 419.976562 217.050781 C 420.535156 216.492188 421.144531 215.992188 421.800781 215.554688 C 422.457031 215.113281 423.152344 214.742188 423.882812 214.441406 C 424.613281 214.136719 425.367188 213.910156 426.140625 213.753906 C 426.917969 213.601562 427.699219 213.523438 428.492188 213.523438 C 429.28125 213.523438 430.066406 213.601562 430.839844 213.753906 C 431.617188 213.910156 432.371094 214.136719 433.101562 214.441406 C 433.832031 214.742188 434.523438 215.113281 435.183594 215.554688 C 435.839844 215.992188 436.449219 216.492188 437.007812 217.050781 C 437.566406 217.609375 438.066406 218.21875 438.503906 218.875 C 438.945312 219.535156 439.316406 220.226562 439.617188 220.957031 C 439.921875 221.6875 440.148438 222.441406 440.304688 223.21875 C 440.457031 223.992188 440.535156 224.777344 440.535156 225.566406 Z M 440.535156 225.566406 " fill-opacity="1" fill-rule="nonzero"/><path fill="#100d28" d="M 533.675781 238.414062 C 533.675781 238.945312 533.625 239.472656 533.519531 239.996094 C 533.417969 240.519531 533.261719 241.023438 533.058594 241.519531 C 532.855469 242.011719 532.605469 242.476562 532.308594 242.921875 C 532.011719 243.363281 531.675781 243.773438 531.300781 244.148438 C 530.921875 244.527344 530.515625 244.863281 530.070312 245.160156 C 529.628906 245.457031 529.160156 245.707031 528.667969 245.910156 C 528.175781 246.113281 527.667969 246.265625 527.144531 246.371094 C 526.621094 246.476562 526.09375 246.527344 525.5625 246.527344 C 525.03125 246.527344 524.5 246.476562 523.980469 246.371094 C 523.457031 246.265625 522.949219 246.113281 522.457031 245.910156 C 521.964844 245.707031 521.496094 245.457031 521.054688 245.160156 C 520.609375 244.863281 520.199219 244.527344 519.824219 244.148438 C 519.449219 243.773438 519.109375 243.363281 518.816406 242.921875 C 518.519531 242.476562 518.269531 242.011719 518.066406 241.519531 C 517.859375 241.023438 517.707031 240.519531 517.601562 239.996094 C 517.5 239.472656 517.445312 238.945312 517.449219 238.414062 C 517.445312 237.878906 517.5 237.351562 517.601562 236.828125 C 517.707031 236.304688 517.859375 235.800781 518.066406 235.304688 C 518.269531 234.8125 518.519531 234.347656 518.816406 233.902344 C 519.109375 233.460938 519.449219 233.050781 519.824219 232.675781 C 520.199219 232.296875 520.609375 231.960938 521.054688 231.664062 C 521.496094 231.367188 521.964844 231.117188 522.457031 230.914062 C 522.949219 230.710938 523.457031 230.558594 523.980469 230.453125 C 524.5 230.347656 525.03125 230.296875 525.5625 230.296875 C 526.09375 230.296875 526.621094 230.347656 527.144531 230.453125 C 527.667969 230.558594 528.175781 230.710938 528.667969 230.914062 C 529.160156 231.117188 529.628906 231.367188 530.070312 231.664062 C 530.515625 231.960938 530.921875 232.296875 531.300781 232.675781 C 531.675781 233.050781 532.011719 233.460938 532.308594 233.902344 C 532.605469 234.347656 532.855469 234.8125 533.058594 235.304688 C 533.261719 235.800781 533.417969 236.304688 533.519531 236.828125 C 533.625 237.351562 533.675781 237.878906 533.675781 238.414062 Z M 533.675781 238.414062 " fill-opacity="1" fill-rule="nonzero"/><path fill="#100d28" d="M 135.546875 264.566406 C 135.546875 265.09375 135.496094 265.613281 135.394531 266.128906 C 135.292969 266.644531 135.140625 267.144531 134.9375 267.632812 C 134.738281 268.117188 134.492188 268.578125 134.199219 269.015625 C 133.90625 269.453125 133.574219 269.859375 133.203125 270.230469 C 132.828125 270.601562 132.425781 270.933594 131.988281 271.226562 C 131.550781 271.519531 131.089844 271.765625 130.601562 271.96875 C 130.117188 272.167969 129.617188 272.320312 129.101562 272.425781 C 128.582031 272.527344 128.0625 272.578125 127.535156 272.578125 C 127.011719 272.578125 126.488281 272.527344 125.972656 272.425781 C 125.457031 272.320312 124.957031 272.167969 124.472656 271.96875 C 123.984375 271.765625 123.523438 271.519531 123.085938 271.226562 C 122.648438 270.933594 122.242188 270.601562 121.871094 270.230469 C 121.5 269.859375 121.167969 269.453125 120.875 269.015625 C 120.582031 268.578125 120.335938 268.117188 120.136719 267.632812 C 119.933594 267.144531 119.78125 266.644531 119.679688 266.128906 C 119.578125 265.613281 119.523438 265.09375 119.523438 264.566406 C 119.523438 264.039062 119.578125 263.519531 119.679688 263.003906 C 119.78125 262.488281 119.933594 261.988281 120.136719 261.5 C 120.335938 261.015625 120.582031 260.550781 120.875 260.117188 C 121.167969 259.679688 121.5 259.273438 121.871094 258.902344 C 122.242188 258.53125 122.648438 258.195312 123.085938 257.90625 C 123.523438 257.613281 123.984375 257.367188 124.46875 257.164062 C 124.957031 256.964844 125.457031 256.8125 125.972656 256.707031 C 126.488281 256.605469 127.011719 256.554688 127.535156 256.554688 C 128.0625 256.554688 128.582031 256.605469 129.101562 256.707031 C 129.617188 256.8125 130.117188 256.964844 130.601562 257.164062 C 131.089844 257.367188 131.550781 257.613281 131.988281 257.90625 C 132.425781 258.195312 132.828125 258.53125 133.203125 258.902344 C 133.574219 259.273438 133.90625 259.679688 134.199219 260.117188 C 134.492188 260.550781 134.738281 261.015625 134.9375 261.5 C 135.140625 261.988281 135.292969 262.488281 135.394531 263.003906 C 135.496094 263.519531 135.546875 264.039062 135.546875 264.566406 Z M 135.546875 264.566406 " fill-opacity="1" fill-rule="nonzero"/><path fill="#100d28" d="M 172.582031 200.371094 C 172.582031 200.894531 172.53125 201.417969 172.429688 201.933594 C 172.328125 202.449219 172.175781 202.949219 171.972656 203.433594 C 171.773438 203.921875 171.523438 204.382812 171.234375 204.820312 C 170.941406 205.257812 170.609375 205.664062 170.238281 206.035156 C 169.863281 206.40625 169.460938 206.738281 169.023438 207.03125 C 168.585938 207.324219 168.125 207.570312 167.636719 207.769531 C 167.152344 207.972656 166.648438 208.125 166.132812 208.226562 C 165.617188 208.328125 165.097656 208.382812 164.570312 208.382812 C 164.046875 208.382812 163.523438 208.328125 163.007812 208.226562 C 162.492188 208.125 161.992188 207.972656 161.503906 207.769531 C 161.019531 207.570312 160.558594 207.324219 160.121094 207.03125 C 159.683594 206.738281 159.277344 206.40625 158.90625 206.035156 C 158.535156 205.664062 158.203125 205.257812 157.910156 204.820312 C 157.617188 204.382812 157.371094 203.921875 157.167969 203.433594 C 156.96875 202.949219 156.816406 202.449219 156.714844 201.933594 C 156.609375 201.417969 156.558594 200.894531 156.558594 200.371094 C 156.558594 199.84375 156.609375 199.324219 156.714844 198.804688 C 156.816406 198.289062 156.96875 197.789062 157.167969 197.304688 C 157.371094 196.816406 157.617188 196.355469 157.910156 195.917969 C 158.203125 195.480469 158.535156 195.078125 158.90625 194.703125 C 159.277344 194.332031 159.683594 194 160.121094 193.707031 C 160.558594 193.414062 161.019531 193.167969 161.503906 192.96875 C 161.992188 192.765625 162.492188 192.613281 163.007812 192.511719 C 163.523438 192.410156 164.046875 192.359375 164.570312 192.359375 C 165.097656 192.359375 165.617188 192.410156 166.132812 192.511719 C 166.648438 192.613281 167.152344 192.765625 167.636719 192.96875 C 168.125 193.167969 168.585938 193.414062 169.023438 193.707031 C 169.460938 194 169.863281 194.332031 170.238281 194.703125 C 170.609375 195.078125 170.941406 195.480469 171.234375 195.917969 C 171.523438 196.355469 171.773438 196.816406 171.972656 197.304688 C 172.175781 197.789062 172.328125 198.289062 172.429688 198.804688 C 172.53125 199.324219 172.582031 199.84375 172.582031 200.371094 Z M 172.582031 200.371094 " fill-opacity="1" fill-rule="nonzero"/><path fill="#100d28" d="M 255.078125 143.589844 C 255.078125 144.117188 255.027344 144.636719 254.921875 145.152344 C 254.820312 145.667969 254.667969 146.167969 254.46875 146.65625 C 254.265625 147.140625 254.019531 147.605469 253.726562 148.039062 C 253.433594 148.476562 253.101562 148.882812 252.730469 149.253906 C 252.359375 149.628906 251.953125 149.960938 251.515625 150.25 C 251.078125 150.542969 250.617188 150.789062 250.132812 150.992188 C 249.644531 151.191406 249.144531 151.34375 248.628906 151.449219 C 248.113281 151.550781 247.59375 151.601562 247.066406 151.601562 C 246.539062 151.601562 246.019531 151.550781 245.503906 151.449219 C 244.988281 151.34375 244.484375 151.191406 244 150.992188 C 243.515625 150.789062 243.050781 150.542969 242.613281 150.25 C 242.175781 149.960938 241.773438 149.628906 241.402344 149.253906 C 241.027344 148.882812 240.695312 148.476562 240.40625 148.039062 C 240.113281 147.605469 239.867188 147.140625 239.664062 146.65625 C 239.460938 146.167969 239.3125 145.667969 239.207031 145.152344 C 239.105469 144.636719 239.054688 144.117188 239.054688 143.589844 C 239.054688 143.0625 239.105469 142.542969 239.207031 142.027344 C 239.3125 141.511719 239.460938 141.011719 239.664062 140.523438 C 239.867188 140.039062 240.113281 139.578125 240.40625 139.140625 C 240.695312 138.703125 241.027344 138.296875 241.402344 137.925781 C 241.773438 137.554688 242.175781 137.222656 242.613281 136.929688 C 243.050781 136.636719 243.515625 136.390625 244 136.1875 C 244.484375 135.988281 244.988281 135.835938 245.503906 135.730469 C 246.019531 135.628906 246.539062 135.578125 247.066406 135.578125 C 247.59375 135.578125 248.113281 135.628906 248.628906 135.730469 C 249.144531 135.835938 249.644531 135.988281 250.132812 136.1875 C 250.617188 136.390625 251.078125 136.636719 251.515625 136.929688 C 251.953125 137.222656 252.359375 137.554688 252.730469 137.925781 C 253.101562 138.296875 253.433594 138.703125 253.726562 139.140625 C 254.019531 139.578125 254.265625 140.039062 254.46875 140.523438 C 254.667969 141.011719 254.820312 141.511719 254.921875 142.027344 C 255.027344 142.542969 255.078125 143.0625 255.078125 143.589844 Z M 255.078125 143.589844 " fill-opacity="1" fill-rule="nonzero"/><path fill="#100d28" d="M 172.582031 54.402344 C 172.582031 54.929688 172.53125 55.449219 172.429688 55.964844 C 172.328125 56.480469 172.175781 56.980469 171.972656 57.46875 C 171.773438 57.953125 171.523438 58.414062 171.234375 58.851562 C 170.941406 59.289062 170.609375 59.695312 170.238281 60.066406 C 169.863281 60.4375 169.460938 60.769531 169.023438 61.0625 C 168.585938 61.355469 168.125 61.601562 167.636719 61.804688 C 167.152344 62.003906 166.648438 62.15625 166.132812 62.257812 C 165.617188 62.363281 165.097656 62.414062 164.570312 62.414062 C 164.046875 62.414062 163.523438 62.363281 163.007812 62.257812 C 162.492188 62.15625 161.992188 62.003906 161.503906 61.804688 C 161.019531 61.601562 160.558594 61.355469 160.121094 61.0625 C 159.683594 60.769531 159.277344 60.4375 158.90625 60.066406 C 158.535156 59.695312 158.203125 59.289062 157.910156 58.851562 C 157.617188 58.414062 157.371094 57.953125 157.167969 57.46875 C 156.96875 56.980469 156.816406 56.480469 156.714844 55.964844 C 156.609375 55.449219 156.558594 54.929688 156.558594 54.402344 C 156.558594 53.875 156.609375 53.355469 156.714844 52.839844 C 156.816406 52.324219 156.96875 51.820312 157.167969 51.335938 C 157.371094 50.851562 157.617188 50.386719 157.910156 49.949219 C 158.203125 49.511719 158.535156 49.109375 158.90625 48.738281 C 159.277344 48.363281 159.683594 48.03125 160.121094 47.742188 C 160.558594 47.449219 161.019531 47.203125 161.503906 47 C 161.992188 46.796875 162.492188 46.648438 163.007812 46.542969 C 163.523438 46.441406 164.046875 46.390625 164.570312 46.390625 C 165.097656 46.390625 165.617188 46.441406 166.132812 46.542969 C 166.648438 46.648438 167.152344 46.796875 167.636719 47 C 168.125 47.203125 168.585938 47.449219 169.023438 47.742188 C 169.460938 48.03125 169.863281 48.363281 170.238281 48.738281 C 170.609375 49.109375 170.941406 49.511719 171.234375 49.949219 C 171.523438 50.386719 171.773438 50.851562 171.972656 51.335938 C 172.175781 51.820312 172.328125 52.324219 172.429688 52.839844 C 172.53125 53.355469 172.582031 53.875 172.582031 54.402344 Z M 172.582031 54.402344 " fill-opacity="1" fill-rule="nonzero"/><path fill="#100d28" d="M 374.246094 131.339844 C 374.246094 131.867188 374.195312 132.386719 374.089844 132.902344 C 373.988281 133.417969 373.835938 133.917969 373.636719 134.40625 C 373.433594 134.890625 373.1875 135.351562 372.894531 135.789062 C 372.601562 136.226562 372.269531 136.632812 371.898438 137.003906 C 371.527344 137.375 371.121094 137.707031 370.683594 138 C 370.246094 138.292969 369.785156 138.539062 369.300781 138.742188 C 368.8125 138.941406 368.3125 139.09375 367.796875 139.199219 C 367.28125 139.300781 366.757812 139.351562 366.234375 139.351562 C 365.707031 139.351562 365.1875 139.300781 364.671875 139.199219 C 364.15625 139.09375 363.652344 138.941406 363.167969 138.742188 C 362.679688 138.539062 362.21875 138.292969 361.78125 138 C 361.34375 137.707031 360.941406 137.375 360.566406 137.003906 C 360.195312 136.632812 359.863281 136.226562 359.570312 135.789062 C 359.28125 135.351562 359.03125 134.890625 358.832031 134.40625 C 358.628906 133.917969 358.476562 133.417969 358.375 132.902344 C 358.273438 132.386719 358.222656 131.867188 358.222656 131.339844 C 358.222656 130.8125 358.273438 130.292969 358.375 129.777344 C 358.476562 129.261719 358.628906 128.761719 358.832031 128.273438 C 359.03125 127.789062 359.28125 127.324219 359.570312 126.890625 C 359.863281 126.453125 360.195312 126.046875 360.566406 125.675781 C 360.941406 125.300781 361.34375 124.96875 361.78125 124.679688 C 362.21875 124.386719 362.679688 124.140625 363.167969 123.9375 C 363.652344 123.738281 364.15625 123.585938 364.671875 123.480469 C 365.1875 123.378906 365.707031 123.328125 366.234375 123.328125 C 366.757812 123.328125 367.28125 123.378906 367.796875 123.480469 C 368.3125 123.585938 368.8125 123.738281 369.300781 123.9375 C 369.785156 124.140625 370.246094 124.386719 370.683594 124.679688 C 371.121094 124.96875 371.527344 125.300781 371.898438 125.675781 C 372.269531 126.046875 372.601562 126.453125 372.894531 126.890625 C 373.1875 127.324219 373.433594 127.789062 373.636719 128.273438 C 373.835938 128.761719 373.988281 129.261719 374.089844 129.777344 C 374.195312 130.292969 374.246094 130.8125 374.246094 131.339844 Z M 374.246094 131.339844 " fill-opacity="1" fill-rule="nonzero"/><path fill="#100d28" d="M 488.011719 51.300781 C 488.011719 51.828125 487.960938 52.347656 487.855469 52.863281 C 487.753906 53.378906 487.601562 53.878906 487.402344 54.367188 C 487.199219 54.851562 486.953125 55.3125 486.660156 55.75 C 486.367188 56.1875 486.035156 56.59375 485.664062 56.964844 C 485.292969 57.335938 484.886719 57.667969 484.449219 57.960938 C 484.011719 58.253906 483.550781 58.5 483.066406 58.703125 C 482.578125 58.902344 482.078125 59.054688 481.5625 59.160156 C 481.046875 59.261719 480.523438 59.3125 480 59.3125 C 479.472656 59.3125 478.953125 59.261719 478.4375 59.160156 C 477.921875 59.054688 477.417969 58.902344 476.933594 58.703125 C 476.445312 58.5 475.984375 58.253906 475.546875 57.960938 C 475.109375 57.667969 474.707031 57.335938 474.335938 56.964844 C 473.960938 56.59375 473.628906 56.1875 473.335938 55.75 C 473.046875 55.3125 472.796875 54.851562 472.597656 54.367188 C 472.394531 53.878906 472.242188 53.378906 472.140625 52.863281 C 472.039062 52.347656 471.988281 51.828125 471.988281 51.300781 C 471.988281 50.773438 472.039062 50.253906 472.140625 49.738281 C 472.242188 49.222656 472.394531 48.71875 472.597656 48.234375 C 472.796875 47.75 473.046875 47.285156 473.335938 46.847656 C 473.628906 46.410156 473.960938 46.007812 474.335938 45.636719 C 474.707031 45.261719 475.109375 44.929688 475.546875 44.640625 C 475.984375 44.347656 476.445312 44.101562 476.933594 43.898438 C 477.417969 43.699219 477.921875 43.546875 478.4375 43.441406 C 478.953125 43.339844 479.472656 43.289062 480 43.289062 C 480.523438 43.289062 481.046875 43.339844 481.5625 43.441406 C 482.078125 43.546875 482.578125 43.699219 483.066406 43.898438 C 483.550781 44.101562 484.011719 44.347656 484.449219 44.640625 C 484.886719 44.929688 485.292969 45.261719 485.664062 45.636719 C 486.035156 46.007812 486.367188 46.410156 486.660156 46.847656 C 486.953125 47.285156 487.199219 47.75 487.402344 48.234375 C 487.601562 48.71875 487.753906 49.222656 487.855469 49.738281 C 487.960938 50.253906 488.011719 50.773438 488.011719 51.300781 Z M 488.011719 51.300781 " fill-opacity="1" fill-rule="nonzero"/><path fill="#100d28" d="M 526.570312 238.050781 L 478.472656 51.636719 L 300.097656 -95.363281 L 161.78125 -152.300781 L 162.269531 -153.515625 L 300.925781 -96.398438 L 479.558594 50.914062 L 527.65625 237.328125 Z M 526.570312 238.050781 " fill-opacity="1" fill-rule="nonzero"/></svg>